<?xml version="1.0" encoding="utf-8"?>
<!-- Generator: Adobe Illustrator 18.0.0, SVG Export Plug-In . SVG Version: 6.00 Build 0)  -->
<!DOCTYPE svg PUBLIC "-//W3C//DTD SVG 1.1//EN" "http://www.w3.org/Graphics/SVG/1.1/DTD/svg11.dtd">
<svg version="1.1" id="Layer_1" xmlns="http://www.w3.org/2000/svg" xmlns:xlink="http://www.w3.org/1999/xlink" x="0px" y="0px"
	 width="287.119px" height="39.027px" viewBox="0 0 287.119 39.027" enable-background="new 0 0 287.119 39.027"
	 xml:space="preserve">
<g>
	<g>
		<g opacity="0.95">
			<path fill="#FFFFFF" d="M4.032,5.086c0,0.566-0.194,1.044-0.583,1.433C3.061,6.906,2.583,7.101,2.016,7.101
				c-0.55,0-1.024-0.194-1.421-0.582C0.198,6.13,0,5.652,0,5.086c0-0.55,0.198-1.023,0.595-1.42C0.992,3.27,1.466,3.071,2.016,3.071
				c0.567,0,1.045,0.198,1.434,0.595C3.838,4.063,4.032,4.536,4.032,5.086z M0.51,13.146c0-0.421,0.146-0.777,0.438-1.068
				s0.647-0.437,1.068-0.437s0.781,0.146,1.081,0.437c0.299,0.291,0.45,0.647,0.45,1.068v24.179c0,0.421-0.15,0.776-0.45,1.067
				c-0.3,0.292-0.66,0.438-1.081,0.438s-0.777-0.146-1.068-0.438c-0.292-0.291-0.438-0.646-0.438-1.067V13.146z"/>
			<path fill="#FFFFFF" d="M7.521,13.146c0-0.421,0.146-0.777,0.437-1.068s0.647-0.437,1.069-0.437c0.421,0,0.777,0.146,1.069,0.437
				s0.437,0.647,0.437,1.068v2.815c2.979-2.88,6.17-4.32,9.571-4.32c3.498,0,6.461,1.229,8.89,3.689
				c2.478,2.46,3.717,5.43,3.717,8.909v13.085c0,0.421-0.15,0.776-0.45,1.067c-0.3,0.292-0.66,0.438-1.081,0.438
				c-0.421,0-0.777-0.146-1.069-0.438c-0.292-0.291-0.438-0.646-0.438-1.067V24.239c0-2.67-0.939-4.92-2.817-6.749
				c-1.879-1.893-4.129-2.84-6.753-2.84s-4.882,0.947-6.777,2.84c-1.862,1.846-2.793,4.095-2.793,6.749v13.085
				c0,0.421-0.146,0.776-0.437,1.067c-0.292,0.292-0.648,0.438-1.069,0.438c-0.421,0-0.777-0.146-1.069-0.438
				c-0.292-0.291-0.437-0.646-0.437-1.067V13.146z"/>
			<path fill="#FFFFFF" d="M55.97,13.25c2.072,1.21,3.713,2.867,4.924,4.972s1.816,4.449,1.816,7.034v11.087
				c0,0.729-0.242,1.335-0.723,1.814c-0.48,0.481-1.086,0.722-1.814,0.722c-0.73,0-1.336-0.24-1.816-0.722
				c-0.48-0.479-0.721-1.085-0.721-1.814v-1.839c-1.162,1.425-2.57,2.535-4.229,3.331c-1.66,0.795-3.449,1.192-5.373,1.192
				c-2.389,0-4.552-0.597-6.492-1.789c-1.94-1.193-3.466-2.842-4.577-4.947c-1.112-2.104-1.667-4.449-1.667-7.035
				c0-2.585,0.597-4.93,1.791-7.034c1.194-2.104,2.843-3.762,4.95-4.972c2.105-1.21,4.436-1.814,6.989-1.814
				C51.583,11.436,53.896,12.04,55.97,13.25z M53.531,33.335c1.344-0.812,2.396-1.922,3.16-3.331
				c0.762-1.408,1.145-2.99,1.145-4.748c0-1.756-0.383-3.347-1.145-4.772c-0.764-1.425-1.816-2.543-3.16-3.355
				c-1.342-0.812-2.844-1.218-4.502-1.218s-3.158,0.406-4.501,1.218c-1.343,0.813-2.405,1.931-3.184,3.355
				c-0.78,1.426-1.169,3.017-1.169,4.772c0,1.758,0.39,3.34,1.169,4.748c0.779,1.409,1.84,2.52,3.184,3.331
				c1.343,0.813,2.843,1.219,4.501,1.219S52.189,34.147,53.531,33.335z"/>
			<path fill="#FFFFFF" d="M73.057,37.238c-2.09-1.193-3.724-2.842-4.9-4.947c-1.178-2.104-1.767-4.449-1.767-7.035
				c0-2.65,0.572-5.028,1.717-7.134c1.145-2.104,2.744-3.745,4.801-4.922c2.056-1.176,4.378-1.765,6.965-1.765
				c3.912,0,7.163,1.491,9.75,4.475c0.331,0.364,0.497,0.795,0.497,1.292c0,0.729-0.365,1.343-1.094,1.84
				c-0.332,0.232-0.714,0.348-1.145,0.348c-0.764,0-1.41-0.298-1.94-0.895c-0.829-0.896-1.733-1.549-2.711-1.964
				c-0.979-0.414-2.098-0.621-3.357-0.621c-2.555,0-4.627,0.854-6.219,2.56c-1.592,1.708-2.388,3.97-2.388,6.786
				c0,1.79,0.373,3.39,1.119,4.798c0.746,1.409,1.791,2.511,3.134,3.307c1.344,0.795,2.877,1.193,4.602,1.193
				c2.255,0,4.079-0.58,5.473-1.74c0.63-0.464,1.243-0.696,1.841-0.696c0.464,0,0.896,0.149,1.293,0.447
				c0.63,0.53,0.945,1.127,0.945,1.79c0,0.497-0.199,0.944-0.597,1.342c-2.388,2.222-5.373,3.331-8.955,3.331
				C77.5,39.027,75.146,38.431,73.057,37.238z"/>
			<path fill="#FFFFFF" d="M100.468,37.238c-2.09-1.193-3.724-2.842-4.9-4.947c-1.178-2.104-1.767-4.449-1.767-7.035
				c0-2.65,0.572-5.028,1.717-7.134c1.145-2.104,2.744-3.745,4.801-4.922c2.056-1.176,4.378-1.765,6.965-1.765
				c3.912,0,7.163,1.491,9.75,4.475c0.331,0.364,0.497,0.795,0.497,1.292c0,0.729-0.365,1.343-1.094,1.84
				c-0.332,0.232-0.714,0.348-1.145,0.348c-0.764,0-1.41-0.298-1.94-0.895c-0.829-0.896-1.733-1.549-2.711-1.964
				c-0.979-0.414-2.098-0.621-3.357-0.621c-2.555,0-4.627,0.854-6.219,2.56c-1.592,1.708-2.388,3.97-2.388,6.786
				c0,1.79,0.373,3.39,1.119,4.798c0.746,1.409,1.791,2.511,3.134,3.307c1.344,0.795,2.877,1.193,4.602,1.193
				c2.255,0,4.079-0.58,5.473-1.74c0.63-0.464,1.243-0.696,1.841-0.696c0.464,0,0.896,0.149,1.293,0.447
				c0.63,0.53,0.945,1.127,0.945,1.79c0,0.497-0.199,0.944-0.597,1.342c-2.388,2.222-5.373,3.331-8.955,3.331
				C104.912,39.027,102.557,38.431,100.468,37.238z"/>
			<path fill="#FFFFFF" d="M146.384,26.375c-0.432,0.415-0.979,0.621-1.642,0.621h-18.904c0.364,2.32,1.418,4.193,3.159,5.618
				c1.741,1.426,3.871,2.138,6.393,2.138c0.995,0,2.031-0.182,3.109-0.547c1.077-0.364,1.965-0.812,2.661-1.342
				c0.464-0.364,1.011-0.547,1.642-0.547c0.63,0,1.127,0.166,1.492,0.497c0.598,0.497,0.896,1.061,0.896,1.69
				c0,0.597-0.266,1.094-0.796,1.491c-1.128,0.895-2.529,1.624-4.203,2.188c-1.676,0.563-3.276,0.845-4.801,0.845
				c-2.72,0-5.158-0.588-7.313-1.765c-2.156-1.176-3.839-2.809-5.049-4.896c-1.211-2.089-1.816-4.458-1.816-7.11
				c0-2.65,0.572-5.028,1.717-7.134c1.145-2.104,2.736-3.745,4.775-4.922c2.04-1.176,4.354-1.765,6.94-1.765
				c2.553,0,4.758,0.563,6.616,1.69c1.856,1.127,3.283,2.701,4.278,4.723c0.995,2.022,1.492,4.343,1.492,6.96
				C147.031,25.438,146.815,25.961,146.384,26.375z M128.749,17.699c-1.51,1.326-2.463,3.1-2.86,5.32h16.565
				c-0.298-2.221-1.128-3.994-2.487-5.32c-1.36-1.325-3.134-1.988-5.322-1.988C132.222,15.711,130.257,16.374,128.749,17.699z"/>
			<path fill="#FFFFFF" d="M153.622,37.66c-1.144-0.778-2.031-1.872-2.661-3.281c-0.631-1.408-0.945-2.99-0.945-4.747V2.486
				c0-0.729,0.231-1.325,0.696-1.79C151.175,0.232,151.773,0,152.502,0s1.326,0.232,1.791,0.696c0.464,0.465,0.696,1.062,0.696,1.79
				v27.146c0,1.227,0.231,2.236,0.696,3.032c0.464,0.796,1.062,1.193,1.791,1.193h1.244c0.663,0,1.201,0.232,1.616,0.696
				s0.622,1.061,0.622,1.789c0,0.729-0.315,1.326-0.945,1.79c-0.63,0.465-1.442,0.696-2.438,0.696h-0.1
				C156.051,38.829,154.766,38.439,153.622,37.66z"/>
			<path opacity="0.7" fill="#FFFFFF" d="M200.857,0.696c0.464,0.465,0.696,1.078,0.696,1.84v22.671c0,2.585-0.605,4.93-1.815,7.034
				c-1.211,2.105-2.853,3.763-4.925,4.972c-2.073,1.211-4.387,1.814-6.94,1.814s-4.884-0.604-6.989-1.814
				c-2.106-1.209-3.756-2.866-4.95-4.972c-1.193-2.104-1.791-4.449-1.791-7.034c0-2.586,0.556-4.93,1.667-7.035
				c1.11-2.104,2.637-3.754,4.577-4.947c1.939-1.192,4.104-1.789,6.491-1.789c1.924,0,3.714,0.397,5.373,1.192
				c1.658,0.796,3.067,1.907,4.229,3.331V2.536c0-0.762,0.24-1.375,0.722-1.84C197.681,0.232,198.287,0,199.016,0
				C199.779,0,200.392,0.232,200.857,0.696z M192.375,33.335c1.344-0.812,2.396-1.93,3.159-3.355
				c0.763-1.425,1.145-3.016,1.145-4.772s-0.382-3.339-1.145-4.748c-0.763-1.408-1.815-2.519-3.159-3.331
				c-1.343-0.812-2.844-1.218-4.502-1.218s-3.159,0.406-4.502,1.218c-1.343,0.813-2.405,1.923-3.184,3.331
				c-0.78,1.409-1.169,2.991-1.169,4.748s0.389,3.348,1.169,4.772c0.778,1.426,1.841,2.544,3.184,3.355
				c1.343,0.813,2.844,1.219,4.502,1.219S191.032,34.147,192.375,33.335z"/>
			<path opacity="0.7" fill="#FFFFFF" d="M213.244,37.263c-2.09-1.176-3.715-2.809-4.876-4.896c-1.161-2.089-1.741-4.458-1.741-7.11
				c0-2.685,0.58-5.07,1.741-7.158c1.161-2.089,2.786-3.721,4.876-4.897c2.089-1.176,4.46-1.765,7.113-1.765
				c2.62,0,4.967,0.589,7.039,1.765c2.072,1.177,3.698,2.809,4.876,4.897c1.177,2.088,1.766,4.474,1.766,7.158
				c0,2.652-0.58,5.021-1.741,7.11c-1.161,2.088-2.778,3.721-4.851,4.896c-2.072,1.177-4.436,1.765-7.089,1.765
				S215.333,38.439,213.244,37.263z M224.909,33.36c1.344-0.796,2.389-1.897,3.135-3.307c0.746-1.408,1.119-3.008,1.119-4.798
				c0-1.789-0.373-3.396-1.119-4.822c-0.746-1.425-1.791-2.535-3.135-3.331c-1.343-0.795-2.86-1.192-4.552-1.192
				s-3.209,0.397-4.552,1.192c-1.343,0.796-2.396,1.906-3.159,3.331c-0.763,1.426-1.144,3.033-1.144,4.822
				c0,1.79,0.381,3.39,1.144,4.798c0.763,1.409,1.816,2.511,3.159,3.307c1.343,0.795,2.86,1.193,4.552,1.193
				S223.566,34.155,224.909,33.36z"/>
			<path opacity="0.7" fill="#FFFFFF" d="M244.385,37.238c-2.09-1.193-3.724-2.842-4.9-4.947c-1.178-2.104-1.767-4.449-1.767-7.035
				c0-2.65,0.572-5.028,1.717-7.134c1.145-2.104,2.744-3.745,4.801-4.922c2.056-1.176,4.378-1.765,6.965-1.765
				c3.912,0,7.163,1.491,9.75,4.475c0.331,0.364,0.497,0.795,0.497,1.292c0,0.729-0.365,1.343-1.094,1.84
				c-0.332,0.232-0.714,0.348-1.145,0.348c-0.764,0-1.41-0.298-1.94-0.895c-0.829-0.896-1.733-1.549-2.711-1.964
				c-0.979-0.414-2.098-0.621-3.357-0.621c-2.555,0-4.627,0.854-6.219,2.56c-1.592,1.708-2.388,3.97-2.388,6.786
				c0,1.79,0.373,3.39,1.119,4.798c0.746,1.409,1.791,2.511,3.134,3.307c1.344,0.795,2.877,1.193,4.602,1.193
				c2.255,0,4.079-0.58,5.473-1.74c0.63-0.464,1.243-0.696,1.841-0.696c0.464,0,0.896,0.149,1.293,0.447
				c0.63,0.53,0.945,1.127,0.945,1.79c0,0.497-0.199,0.944-0.597,1.342c-2.388,2.222-5.373,3.331-8.955,3.331
				C248.829,39.027,246.474,38.431,244.385,37.238z"/>
			<path opacity="0.7" fill="#FFFFFF" d="M270.055,37.983c-1.99-0.695-3.55-1.607-4.677-2.734c-0.432-0.43-0.646-0.944-0.646-1.541
				c0-0.795,0.331-1.441,0.995-1.938c0.629-0.464,1.21-0.696,1.741-0.696c0.663,0,1.293,0.298,1.89,0.895
				c0.63,0.696,1.575,1.302,2.836,1.814c1.26,0.515,2.604,0.771,4.029,0.771c1.891,0,3.358-0.315,4.403-0.945
				c1.044-0.629,1.566-1.475,1.566-2.535c0-1.027-0.515-1.881-1.542-2.561c-1.028-0.679-2.77-1.251-5.224-1.715
				c-6.367-1.227-9.552-3.845-9.552-7.855c0-1.624,0.48-2.999,1.443-4.126c0.961-1.127,2.222-1.972,3.78-2.536
				c1.559-0.563,3.217-0.845,4.976-0.845c2.155,0,4.087,0.348,5.795,1.044c1.708,0.695,3.06,1.657,4.055,2.884
				c0.431,0.53,0.646,1.061,0.646,1.591c0,0.563-0.282,1.077-0.846,1.541c-0.365,0.266-0.829,0.397-1.393,0.397
				c-0.863,0-1.642-0.314-2.338-0.944c-0.83-0.763-1.709-1.301-2.637-1.616c-0.93-0.314-2.057-0.472-3.383-0.472
				c-1.526,0-2.778,0.257-3.756,0.771c-0.979,0.514-1.468,1.234-1.468,2.162c0,0.664,0.165,1.219,0.497,1.666
				c0.331,0.447,0.962,0.862,1.891,1.242c0.928,0.382,2.271,0.755,4.029,1.119c3.614,0.729,6.177,1.74,7.687,3.032
				c1.509,1.293,2.264,2.967,2.264,5.021c0,1.525-0.416,2.908-1.244,4.151c-0.829,1.243-2.048,2.221-3.656,2.934
				c-1.609,0.713-3.541,1.068-5.796,1.068C274.167,39.027,272.044,38.68,270.055,37.983z"/>
		</g>
	</g>
</g>
</svg>
